<mxfile host="65bd71144e">
    <diagram id="dVNCB_RmhKjTXrGLdE7-" name="Page-1">
        <mxGraphModel dx="949" dy="1566" grid="0" gridSize="10" guides="1" tooltips="1" connect="1" arrows="1" fold="1" page="0" pageScale="1" pageWidth="850" pageHeight="1100" background="#FFFFFF" math="0" shadow="0">
            <root>
                <mxCell id="0"/>
                <mxCell id="1" parent="0"/>
                <mxCell id="2" value="Medio" style="swimlane;fillColor=#60a917;fontColor=#ffffff;strokeColor=#2D7600;" parent="1" vertex="1">
                    <mxGeometry x="290" y="220" width="250" height="220" as="geometry"/>
                </mxCell>
                <mxCell id="4" value="&lt;ul&gt;&lt;li&gt;Posee atributos generales&lt;/li&gt;&lt;li&gt;Se especializa en mobiliario y equipos electrónicos&lt;/li&gt;&lt;/ul&gt;" style="text;strokeColor=none;fillColor=none;html=1;whiteSpace=wrap;verticalAlign=middle;overflow=hidden;" parent="2" vertex="1">
                    <mxGeometry y="20" width="130" height="200" as="geometry"/>
                </mxCell>
                <mxCell id="5" value="Mobiliario" style="swimlane;fillColor=#60a917;fontColor=#ffffff;strokeColor=#2D7600;" parent="1" vertex="1">
                    <mxGeometry x="160" y="510" width="250" height="220" as="geometry"/>
                </mxCell>
                <mxCell id="6" value="&lt;ul&gt;&lt;li&gt;Especialización de Medio&lt;/li&gt;&lt;/ul&gt;" style="text;strokeColor=none;fillColor=none;html=1;whiteSpace=wrap;verticalAlign=middle;overflow=hidden;" parent="5" vertex="1">
                    <mxGeometry y="20" width="130" height="200" as="geometry"/>
                </mxCell>
                <mxCell id="7" value="EquipoElectronico" style="swimlane;fillColor=#60a917;fontColor=#ffffff;strokeColor=#2D7600;" parent="1" vertex="1">
                    <mxGeometry x="430" y="510" width="250" height="220" as="geometry"/>
                </mxCell>
                <mxCell id="8" value="&lt;ul&gt;&lt;li&gt;Especialización de Medio&lt;/li&gt;&lt;/ul&gt;" style="text;strokeColor=none;fillColor=none;html=1;whiteSpace=wrap;verticalAlign=middle;overflow=hidden;" parent="7" vertex="1">
                    <mxGeometry y="20" width="130" height="200" as="geometry"/>
                </mxCell>
                <mxCell id="9" value="Usuario" style="swimlane;fillColor=#d80073;fontColor=#ffffff;strokeColor=#A50040;" parent="1" vertex="1">
                    <mxGeometry x="20" y="800" width="250" height="220" as="geometry"/>
                </mxCell>
                <mxCell id="10" value="&lt;ul&gt;&lt;li&gt;Autenticarse&lt;/li&gt;&lt;li&gt;Consultar medios&lt;/li&gt;&lt;li&gt;Consultar estadísticas de los medios&lt;/li&gt;&lt;li&gt;Modificar medios existentes&lt;/li&gt;&lt;li&gt;Añadir y eliminar medios&lt;/li&gt;&lt;/ul&gt;" style="text;strokeColor=none;fillColor=none;html=1;whiteSpace=wrap;verticalAlign=middle;overflow=hidden;" parent="9" vertex="1">
                    <mxGeometry y="20" width="130" height="200" as="geometry"/>
                </mxCell>
                <mxCell id="11" value="" style="line;strokeWidth=4;direction=south;html=1;perimeter=backbonePerimeter;points=[];outlineConnect=0;" parent="9" vertex="1">
                    <mxGeometry x="127" y="30" width="10" height="190" as="geometry"/>
                </mxCell>
                <mxCell id="12" value="&lt;ul&gt;&lt;li&gt;Permiso&lt;/li&gt;&lt;li&gt;Medio&lt;/li&gt;&lt;li&gt;Consulta&lt;/li&gt;&lt;/ul&gt;" style="text;strokeColor=none;fillColor=none;html=1;whiteSpace=wrap;verticalAlign=middle;overflow=hidden;" parent="9" vertex="1">
                    <mxGeometry x="137" y="30" width="113" height="190" as="geometry"/>
                </mxCell>
                <mxCell id="13" value="Permiso" style="swimlane;fillColor=#d80073;fontColor=#ffffff;strokeColor=#A50040;startSize=23;" parent="1" vertex="1">
                    <mxGeometry x="300" y="800" width="250" height="220" as="geometry"/>
                </mxCell>
                <mxCell id="14" value="&lt;ul&gt;&lt;li&gt;Define el acceso de un usuario a un medio&lt;/li&gt;&lt;li&gt;Define la posibilidad de un Usuario de hacer acciones sobre un medio&lt;/li&gt;&lt;/ul&gt;" style="text;strokeColor=none;fillColor=none;html=1;whiteSpace=wrap;verticalAlign=middle;overflow=hidden;" parent="13" vertex="1">
                    <mxGeometry y="20" width="130" height="200" as="geometry"/>
                </mxCell>
                <mxCell id="15" value="" style="line;strokeWidth=4;direction=south;html=1;perimeter=backbonePerimeter;points=[];outlineConnect=0;" parent="13" vertex="1">
                    <mxGeometry x="127" y="30" width="10" height="190" as="geometry"/>
                </mxCell>
                <mxCell id="16" value="&lt;ul&gt;&lt;li&gt;Usuario&lt;/li&gt;&lt;li&gt;Medios&lt;/li&gt;&lt;/ul&gt;" style="text;strokeColor=none;fillColor=none;html=1;whiteSpace=wrap;verticalAlign=middle;overflow=hidden;" parent="13" vertex="1">
                    <mxGeometry x="137" y="30" width="113" height="190" as="geometry"/>
                </mxCell>
                <mxCell id="17" value="Consulta" style="swimlane;fillColor=#6a00ff;fontColor=#ffffff;strokeColor=#3700CC;startSize=23;" parent="1" vertex="1">
                    <mxGeometry x="580" y="800" width="250" height="220" as="geometry"/>
                </mxCell>
                <mxCell id="18" value="&lt;ul&gt;&lt;li&gt;Tiene una expresión de consulta&lt;/li&gt;&lt;li&gt;Muestra un conjunto de estadísticas relacionadas a un conjunto de medios&lt;/li&gt;&lt;/ul&gt;" style="text;strokeColor=none;fillColor=none;html=1;whiteSpace=wrap;verticalAlign=middle;overflow=hidden;" parent="17" vertex="1">
                    <mxGeometry y="20" width="130" height="200" as="geometry"/>
                </mxCell>
                <mxCell id="19" value="" style="line;strokeWidth=4;direction=south;html=1;perimeter=backbonePerimeter;points=[];outlineConnect=0;" parent="17" vertex="1">
                    <mxGeometry x="127" y="30" width="10" height="190" as="geometry"/>
                </mxCell>
                <mxCell id="20" value="&lt;ul&gt;&lt;li&gt;Usuario&lt;/li&gt;&lt;li&gt;Medios&lt;/li&gt;&lt;/ul&gt;" style="text;strokeColor=none;fillColor=none;html=1;whiteSpace=wrap;verticalAlign=middle;overflow=hidden;" parent="17" vertex="1">
                    <mxGeometry x="137" y="30" width="113" height="190" as="geometry"/>
                </mxCell>
                <mxCell id="21" value="CRC Habana Entregas" style="text;html=1;strokeColor=none;fillColor=none;align=center;verticalAlign=middle;whiteSpace=wrap;rounded=0;fontStyle=1;fontSize=40;" vertex="1" parent="1">
                    <mxGeometry x="160" y="40" width="560" height="120" as="geometry"/>
                </mxCell>
            </root>
        </mxGraphModel>
    </diagram>
</mxfile>